<?xml version="1.0" encoding="UTF-8" standalone="no"?>
<!DOCTYPE svg PUBLIC "-//W3C//DTD SVG 1.1//EN"
 "http://www.w3.org/Graphics/SVG/1.1/DTD/svg11.dtd">
<!-- Generated by graphviz version 9.0.0 (20230911.1827)
 -->
<!-- Title: structs Pages: 1 -->
<svg width="1224pt" height="153pt"
 viewBox="0.00 0.00 1224.35 153.00" xmlns="http://www.w3.org/2000/svg" xmlns:xlink="http://www.w3.org/1999/xlink">
<g id="graph0" class="graph" transform="scale(1 1) rotate(0) translate(4 149)">
<title>structs</title>
<polygon fill="white" stroke="none" points="-4,4 -4,-149 1220.35,-149 1220.35,4 -4,4"/>
<!-- detectionRec -->
<g id="node1" class="node">
<title>detectionRec</title>
<polygon fill="#ffd39b" stroke="none" points="1110.6,-31.5 1110.6,-73 1208.35,-73 1208.35,-31.5 1110.6,-31.5"/>
<polygon fill="none" stroke="black" points="1110.6,-31.5 1110.6,-73 1208.35,-73 1208.35,-31.5 1110.6,-31.5"/>
<text text-anchor="start" x="1122.72" y="-54.7" font-family="Times New Roman,serif" font-size="14.00">detectionRec</text>
<text text-anchor="start" x="1115.6" y="-38.95" font-family="Times New Roman,serif" font-size="14.00">(SDSRecorder)</text>
</g>
<!-- dup0 -->
<g id="node2" class="node">
<title>dup0</title>
<ellipse fill="black" stroke="black" cx="464.05" cy="-59.25" rx="1.8" ry="1.8"/>
</g>
<!-- rms -->
<g id="node7" class="node">
<title>rms</title>
<polygon fill="none" stroke="none" points="573.97,-73.5 573.97,-115 622.97,-115 622.97,-73.5 573.97,-73.5"/>
<polygon fill="none" stroke="black" points="573.97,-73.5 573.97,-115 622.97,-115 622.97,-73.5 573.97,-73.5"/>
<text text-anchor="start" x="587.97" y="-96.7" font-family="Times New Roman,serif" font-size="14.00">rms</text>
<text text-anchor="start" x="578.97" y="-80.95" font-family="Times New Roman,serif" font-size="14.00">(RMS)</text>
</g>
<!-- dup0&#45;&gt;rms -->
<g id="edge7" class="edge">
<title>dup0&#45;&gt;rms:i</title>
<path fill="none" stroke="red" d="M466.07,-59.52C468.89,-60.27 477.06,-62.45 483.85,-64.25 512.51,-71.85 545.25,-80.49 568.2,-86.54"/>
<polygon fill="red" stroke="red" points="567.66,-88.2 572.94,-87.79 568.55,-84.82 567.66,-88.2"/>
<text text-anchor="start" x="483.85" y="-77.1" font-family="Times New Roman,serif" font-size="12.00">f32(512)</text>
<text text-anchor="start" x="550.4" y="-70.77" font-family="Times New Roman,serif" font-size="12.00" fill="blue">384</text>
</g>
<!-- toFixedPoint -->
<g id="node10" class="node">
<title>toFixedPoint</title>
<polygon fill="none" stroke="none" points="550.35,-5.5 550.35,-47 646.6,-47 646.6,-5.5 550.35,-5.5"/>
<polygon fill="none" stroke="black" points="550.35,-5.5 550.35,-47 646.6,-47 646.6,-5.5 550.35,-5.5"/>
<text text-anchor="start" x="562.47" y="-28.7" font-family="Times New Roman,serif" font-size="14.00">toFixedPoint</text>
<text text-anchor="start" x="555.35" y="-12.95" font-family="Times New Roman,serif" font-size="14.00">(ToFixedPoint)</text>
</g>
<!-- dup0&#45;&gt;toFixedPoint -->
<g id="edge6" class="edge">
<title>dup0&#45;&gt;toFixedPoint:i</title>
<path fill="none" stroke="red" d="M466.03,-58.66C468.76,-57.03 476.7,-52.46 483.85,-50 503.19,-43.34 525.06,-38.23 544.41,-34.48"/>
<polygon fill="red" stroke="red" points="544.52,-36.24 549.11,-33.59 543.88,-32.8 544.52,-36.24"/>
<text text-anchor="start" x="483.85" y="-53.1" font-family="Times New Roman,serif" font-size="12.00">f32(256)</text>
<text text-anchor="start" x="526.6" y="-15.91" font-family="Times New Roman,serif" font-size="12.00" fill="blue">256</text>
</g>
<!-- dup1 -->
<g id="node3" class="node">
<title>dup1</title>
<ellipse fill="black" stroke="black" cx="790.97" cy="-94.25" rx="1.8" ry="1.8"/>
</g>
<!-- energyRec -->
<g id="node4" class="node">
<title>energyRec</title>
<polygon fill="#ffd39b" stroke="none" points="926.35,-99.5 926.35,-141 1024.1,-141 1024.1,-99.5 926.35,-99.5"/>
<polygon fill="none" stroke="black" points="926.35,-99.5 926.35,-141 1024.1,-141 1024.1,-99.5 926.35,-99.5"/>
<text text-anchor="start" x="945.6" y="-122.7" font-family="Times New Roman,serif" font-size="14.00">energyRec</text>
<text text-anchor="start" x="931.35" y="-106.95" font-family="Times New Roman,serif" font-size="14.00">(SDSRecorder)</text>
</g>
<!-- dup1&#45;&gt;energyRec -->
<g id="edge10" class="edge">
<title>dup1&#45;&gt;energyRec:i</title>
<path fill="none" stroke="red" d="M793.14,-94.42C802.79,-95.79 870.46,-105.45 920.26,-112.55"/>
<polygon fill="red" stroke="red" points="919.85,-114.26 925.05,-113.23 920.35,-110.8 919.85,-114.26"/>
<text text-anchor="start" x="865.85" y="-112.1" font-family="Times New Roman,serif" font-size="12.00">f32(10)</text>
<text text-anchor="start" x="908.55" y="-96.05" font-family="Times New Roman,serif" font-size="12.00" fill="blue">10</text>
</g>
<!-- threshold -->
<g id="node9" class="node">
<title>threshold</title>
<polygon fill="none" stroke="none" points="937.22,-31.5 937.22,-73 1013.22,-73 1013.22,-31.5 937.22,-31.5"/>
<polygon fill="none" stroke="black" points="937.22,-31.5 937.22,-73 1013.22,-73 1013.22,-31.5 937.22,-31.5"/>
<text text-anchor="start" x="949.35" y="-54.7" font-family="Times New Roman,serif" font-size="14.00">threshold</text>
<text text-anchor="start" x="942.22" y="-38.95" font-family="Times New Roman,serif" font-size="14.00">(Threshold)</text>
</g>
<!-- dup1&#45;&gt;threshold -->
<g id="edge9" class="edge">
<title>dup1&#45;&gt;threshold:i</title>
<path fill="none" stroke="red" d="M793.14,-93.98C803.52,-91.59 880.98,-73.74 931.18,-62.17"/>
<polygon fill="red" stroke="red" points="931.51,-63.89 935.99,-61.06 930.72,-60.48 931.51,-63.89"/>
<text text-anchor="start" x="875.6" y="-80.1" font-family="Times New Roman,serif" font-size="12.00">f32</text>
</g>
<!-- iir -->
<g id="node5" class="node">
<title>iir</title>
<polygon fill="none" stroke="none" points="339.88,-38.5 339.88,-80 377.62,-80 377.62,-38.5 339.88,-38.5"/>
<polygon fill="none" stroke="black" points="339.88,-38.5 339.88,-80 377.62,-80 377.62,-38.5 339.88,-38.5"/>
<text text-anchor="start" x="353.5" y="-61.7" font-family="Times New Roman,serif" font-size="14.00">iir</text>
<text text-anchor="start" x="344.88" y="-45.95" font-family="Times New Roman,serif" font-size="14.00">(IIR)</text>
</g>
<!-- iir&#45;&gt;dup0 -->
<g id="edge5" class="edge">
<title>iir:i&#45;&gt;dup0</title>
<path fill="none" stroke="red" d="M377.27,-59.25C400.2,-59.25 439.36,-59.25 455.62,-59.25"/>
<polygon fill="red" stroke="red" points="455.55,-61 460.55,-59.25 455.55,-57.5 455.55,-61"/>
<text text-anchor="start" x="403.75" y="-62.1" font-family="Times New Roman,serif" font-size="12.00">f32(256)</text>
<text text-anchor="start" x="383.27" y="-41.85" font-family="Times New Roman,serif" font-size="12.00" fill="blue">256</text>
</g>
<!-- player -->
<g id="node6" class="node">
<title>player</title>
<polygon fill="khaki" stroke="none" points="8,-38.5 8,-80 87.75,-80 87.75,-38.5 8,-38.5"/>
<polygon fill="none" stroke="black" points="8,-38.5 8,-80 87.75,-80 87.75,-38.5 8,-38.5"/>
<text text-anchor="start" x="31" y="-61.7" font-family="Times New Roman,serif" font-size="14.00">player</text>
<text text-anchor="start" x="13" y="-45.95" font-family="Times New Roman,serif" font-size="14.00">(SDSPlayer)</text>
</g>
<!-- toFloat -->
<g id="node11" class="node">
<title>toFloat</title>
<polygon fill="none" stroke="none" points="183.25,-38.5 183.25,-80 247.25,-80 247.25,-38.5 183.25,-38.5"/>
<polygon fill="none" stroke="black" points="183.25,-38.5 183.25,-80 247.25,-80 247.25,-38.5 183.25,-38.5"/>
<text text-anchor="start" x="195.38" y="-61.7" font-family="Times New Roman,serif" font-size="14.00">toFloat</text>
<text text-anchor="start" x="188.25" y="-45.95" font-family="Times New Roman,serif" font-size="14.00">(ToFloat)</text>
</g>
<!-- player&#45;&gt;toFloat -->
<g id="edge1" class="edge">
<title>player:i&#45;&gt;toFloat:i</title>
<path fill="none" stroke="darkblue" d="M87.65,-59.25C114.69,-59.25 150.57,-59.25 177.22,-59.25"/>
<polygon fill="darkblue" stroke="darkblue" points="176.93,-61 181.93,-59.25 176.93,-57.5 176.93,-61"/>
<text text-anchor="start" x="113.75" y="-62.1" font-family="Times New Roman,serif" font-size="12.00">q15(256)</text>
<text text-anchor="start" x="159.45" y="-41.85" font-family="Times New Roman,serif" font-size="12.00" fill="blue">256</text>
<text text-anchor="start" x="93.65" y="-41.85" font-family="Times New Roman,serif" font-size="12.00" fill="blue">256</text>
</g>
<!-- rms&#45;&gt;dup1 -->
<g id="edge8" class="edge">
<title>rms:i&#45;&gt;dup1</title>
<path fill="none" stroke="red" d="M622.83,-94.25C666.2,-94.25 757.12,-94.25 782.98,-94.25"/>
<polygon fill="red" stroke="red" points="782.71,-96 787.71,-94.25 782.71,-92.5 782.71,-96"/>
<text text-anchor="start" x="686.85" y="-97.1" font-family="Times New Roman,serif" font-size="12.00">f32</text>
</g>
<!-- signalRec -->
<g id="node8" class="node">
<title>signalRec</title>
<polygon fill="#ffd39b" stroke="none" points="742.1,-5.5 742.1,-47 839.85,-47 839.85,-5.5 742.1,-5.5"/>
<polygon fill="none" stroke="black" points="742.1,-5.5 742.1,-47 839.85,-47 839.85,-5.5 742.1,-5.5"/>
<text text-anchor="start" x="763.97" y="-28.7" font-family="Times New Roman,serif" font-size="14.00">signalRec</text>
<text text-anchor="start" x="747.1" y="-12.95" font-family="Times New Roman,serif" font-size="14.00">(SDSRecorder)</text>
</g>
<!-- threshold&#45;&gt;detectionRec -->
<g id="edge4" class="edge">
<title>threshold:i&#45;&gt;detectionRec:i</title>
<path fill="none" stroke="red" d="M1013.11,-52.25C1039.42,-52.25 1075.23,-52.25 1104.72,-52.25"/>
<polygon fill="red" stroke="red" points="1104.39,-54 1109.39,-52.25 1104.39,-50.5 1104.39,-54"/>
<text text-anchor="start" x="1050.1" y="-55.1" font-family="Times New Roman,serif" font-size="12.00">f32(10)</text>
<text text-anchor="start" x="1092.91" y="-34.85" font-family="Times New Roman,serif" font-size="12.00" fill="blue">10</text>
</g>
<!-- toFixedPoint&#45;&gt;signalRec -->
<g id="edge3" class="edge">
<title>toFixedPoint:i&#45;&gt;signalRec:i</title>
<path fill="none" stroke="darkblue" d="M646.56,-26.25C673.61,-26.25 707.68,-26.25 735.82,-26.25"/>
<polygon fill="darkblue" stroke="darkblue" points="735.59,-28 740.59,-26.25 735.59,-24.5 735.59,-28"/>
<text text-anchor="start" x="672.6" y="-29.1" font-family="Times New Roman,serif" font-size="12.00">q15(256)</text>
<text text-anchor="start" x="718.1" y="-8.85" font-family="Times New Roman,serif" font-size="12.00" fill="blue">256</text>
<text text-anchor="start" x="652.56" y="-8.85" font-family="Times New Roman,serif" font-size="12.00" fill="blue">256</text>
</g>
<!-- toFloat&#45;&gt;iir -->
<g id="edge2" class="edge">
<title>toFloat:i&#45;&gt;iir:i</title>
<path fill="none" stroke="red" d="M246.95,-59.25C272.96,-59.25 309.72,-59.25 333.65,-59.25"/>
<polygon fill="red" stroke="red" points="333.52,-61 338.52,-59.25 333.52,-57.5 333.52,-61"/>
<text text-anchor="start" x="273.25" y="-62.1" font-family="Times New Roman,serif" font-size="12.00">f32(256)</text>
<text text-anchor="start" x="316.04" y="-41.85" font-family="Times New Roman,serif" font-size="12.00" fill="blue">256</text>
<text text-anchor="start" x="252.95" y="-41.85" font-family="Times New Roman,serif" font-size="12.00" fill="blue">256</text>
</g>
</g>
</svg>
