<?xml version="1.0" encoding="UTF-8" standalone="no"?>
<!DOCTYPE svg PUBLIC "-//W3C//DTD SVG 1.1//EN"
 "http://www.w3.org/Graphics/SVG/1.1/DTD/svg11.dtd">
<!-- Generated by graphviz version 9.0.0 (20230911.1827)
 -->
<!-- Title: structs Pages: 1 -->
<svg width="828pt" height="127pt"
 viewBox="0.00 0.00 827.85 127.00" xmlns="http://www.w3.org/2000/svg" xmlns:xlink="http://www.w3.org/1999/xlink">
<g id="graph0" class="graph" transform="scale(1 1) rotate(0) translate(4 123)">
<title>structs</title>
<polygon fill="white" stroke="none" points="-4,4 -4,-123 823.85,-123 823.85,4 -4,4"/>
<!-- detectionRec -->
<g id="node1" class="node">
<title>detectionRec</title>
<polygon fill="#ffd39b" stroke="none" points="714.1,-5.5 714.1,-47 811.85,-47 811.85,-5.5 714.1,-5.5"/>
<polygon fill="none" stroke="black" points="714.1,-5.5 714.1,-47 811.85,-47 811.85,-5.5 714.1,-5.5"/>
<text text-anchor="start" x="726.23" y="-28.7" font-family="Times New Roman,serif" font-size="14.00">detectionRec</text>
<text text-anchor="start" x="719.1" y="-12.95" font-family="Times New Roman,serif" font-size="14.00">(SDSRecorder)</text>
</g>
<!-- dup0 -->
<g id="node2" class="node">
<title>dup0</title>
<ellipse fill="black" stroke="black" cx="449.55" cy="-60.25" rx="1.8" ry="1.8"/>
</g>
<!-- energyRec -->
<g id="node3" class="node">
<title>energyRec</title>
<polygon fill="#ffd39b" stroke="none" points="529.85,-73.5 529.85,-115 627.6,-115 627.6,-73.5 529.85,-73.5"/>
<polygon fill="none" stroke="black" points="529.85,-73.5 529.85,-115 627.6,-115 627.6,-73.5 529.85,-73.5"/>
<text text-anchor="start" x="549.1" y="-96.7" font-family="Times New Roman,serif" font-size="14.00">energyRec</text>
<text text-anchor="start" x="534.85" y="-80.95" font-family="Times New Roman,serif" font-size="14.00">(SDSRecorder)</text>
</g>
<!-- dup0&#45;&gt;energyRec -->
<g id="edge6" class="edge">
<title>dup0&#45;&gt;energyRec:i</title>
<path fill="none" stroke="red" d="M451.5,-61.04C454.14,-63.2 461.88,-69.23 469.35,-72.25 486.54,-79.2 506.19,-84.04 523.99,-87.37"/>
<polygon fill="red" stroke="red" points="523.23,-89.01 528.46,-88.17 523.85,-85.56 523.23,-89.01"/>
<text text-anchor="start" x="469.35" y="-86.1" font-family="Times New Roman,serif" font-size="12.00">f32(10)</text>
<text text-anchor="start" x="511.95" y="-71.04" font-family="Times New Roman,serif" font-size="12.00" fill="blue">10</text>
</g>
<!-- threshold -->
<g id="node6" class="node">
<title>threshold</title>
<polygon fill="none" stroke="none" points="540.73,-5.5 540.73,-47 616.73,-47 616.73,-5.5 540.73,-5.5"/>
<polygon fill="none" stroke="black" points="540.73,-5.5 540.73,-47 616.73,-47 616.73,-5.5 540.73,-5.5"/>
<text text-anchor="start" x="552.85" y="-28.7" font-family="Times New Roman,serif" font-size="14.00">threshold</text>
<text text-anchor="start" x="545.73" y="-12.95" font-family="Times New Roman,serif" font-size="14.00">(Threshold)</text>
</g>
<!-- dup0&#45;&gt;threshold -->
<g id="edge5" class="edge">
<title>dup0&#45;&gt;threshold:i</title>
<path fill="none" stroke="red" d="M451.36,-60.03C457.75,-58.32 500.62,-46.86 534.68,-37.76"/>
<polygon fill="red" stroke="red" points="535.08,-39.46 539.46,-36.48 534.18,-36.08 535.08,-39.46"/>
<text text-anchor="start" x="479.1" y="-58.1" font-family="Times New Roman,serif" font-size="12.00">f32</text>
</g>
<!-- player -->
<g id="node4" class="node">
<title>player</title>
<polygon fill="khaki" stroke="none" points="8,-39.5 8,-81 87.75,-81 87.75,-39.5 8,-39.5"/>
<polygon fill="none" stroke="black" points="8,-39.5 8,-81 87.75,-81 87.75,-39.5 8,-39.5"/>
<text text-anchor="start" x="31" y="-62.7" font-family="Times New Roman,serif" font-size="14.00">player</text>
<text text-anchor="start" x="13" y="-46.95" font-family="Times New Roman,serif" font-size="14.00">(SDSPlayer)</text>
</g>
<!-- toFloat -->
<g id="node7" class="node">
<title>toFloat</title>
<polygon fill="none" stroke="none" points="183.25,-39.5 183.25,-81 247.25,-81 247.25,-39.5 183.25,-39.5"/>
<polygon fill="none" stroke="black" points="183.25,-39.5 183.25,-81 247.25,-81 247.25,-39.5 183.25,-39.5"/>
<text text-anchor="start" x="195.38" y="-62.7" font-family="Times New Roman,serif" font-size="14.00">toFloat</text>
<text text-anchor="start" x="188.25" y="-46.95" font-family="Times New Roman,serif" font-size="14.00">(ToFloat)</text>
</g>
<!-- player&#45;&gt;toFloat -->
<g id="edge1" class="edge">
<title>player:i&#45;&gt;toFloat:i</title>
<path fill="none" stroke="darkblue" d="M87.65,-60.25C114.69,-60.25 150.57,-60.25 177.22,-60.25"/>
<polygon fill="darkblue" stroke="darkblue" points="176.93,-62 181.93,-60.25 176.93,-58.5 176.93,-62"/>
<text text-anchor="start" x="113.75" y="-63.1" font-family="Times New Roman,serif" font-size="12.00">q15(256)</text>
<text text-anchor="start" x="159.45" y="-42.85" font-family="Times New Roman,serif" font-size="12.00" fill="blue">256</text>
<text text-anchor="start" x="93.65" y="-42.85" font-family="Times New Roman,serif" font-size="12.00" fill="blue">256</text>
</g>
<!-- rms -->
<g id="node5" class="node">
<title>rms</title>
<polygon fill="none" stroke="none" points="339.75,-39.5 339.75,-81 388.75,-81 388.75,-39.5 339.75,-39.5"/>
<polygon fill="none" stroke="black" points="339.75,-39.5 339.75,-81 388.75,-81 388.75,-39.5 339.75,-39.5"/>
<text text-anchor="start" x="353.75" y="-62.7" font-family="Times New Roman,serif" font-size="14.00">rms</text>
<text text-anchor="start" x="344.75" y="-46.95" font-family="Times New Roman,serif" font-size="14.00">(RMS)</text>
</g>
<!-- rms&#45;&gt;dup0 -->
<g id="edge4" class="edge">
<title>rms:i&#45;&gt;dup0</title>
<path fill="none" stroke="red" d="M388.45,-60.25C406.25,-60.25 429.69,-60.25 441.33,-60.25"/>
<polygon fill="red" stroke="red" points="441.14,-62 446.14,-60.25 441.14,-58.5 441.14,-62"/>
<text text-anchor="start" x="414.75" y="-63.1" font-family="Times New Roman,serif" font-size="12.00">f32</text>
</g>
<!-- threshold&#45;&gt;detectionRec -->
<g id="edge3" class="edge">
<title>threshold:i&#45;&gt;detectionRec:i</title>
<path fill="none" stroke="red" d="M616.61,-26.25C642.92,-26.25 678.73,-26.25 708.22,-26.25"/>
<polygon fill="red" stroke="red" points="707.89,-28 712.89,-26.25 707.89,-24.5 707.89,-28"/>
<text text-anchor="start" x="653.6" y="-29.1" font-family="Times New Roman,serif" font-size="12.00">f32(10)</text>
<text text-anchor="start" x="696.41" y="-8.85" font-family="Times New Roman,serif" font-size="12.00" fill="blue">10</text>
</g>
<!-- toFloat&#45;&gt;rms -->
<g id="edge2" class="edge">
<title>toFloat:i&#45;&gt;rms:i</title>
<path fill="none" stroke="red" d="M247.07,-60.25C272.57,-60.25 308.57,-60.25 333.71,-60.25"/>
<polygon fill="red" stroke="red" points="333.66,-62 338.66,-60.25 333.66,-58.5 333.66,-62"/>
<text text-anchor="start" x="273.25" y="-63.1" font-family="Times New Roman,serif" font-size="12.00">f32(512)</text>
<text text-anchor="start" x="316.18" y="-42.85" font-family="Times New Roman,serif" font-size="12.00" fill="blue">384</text>
<text text-anchor="start" x="253.07" y="-42.85" font-family="Times New Roman,serif" font-size="12.00" fill="blue">256</text>
</g>
</g>
</svg>
